<svg xmlns="http://www.w3.org/2000/svg" viewBox="0 0 646.15 646.15"><title>logo</title><g id="Layer_1" data-name="Layer 1"><path d="M330,211.92A121.16,121.16,0,1,0,451.15,333.08,121.16,121.16,0,0,0,330,211.92ZM330,434a101,101,0,1,1,101-101A101,101,0,0,1,330,434Z" transform="translate(-6.92 -10)"/><path d="M337.09,324.55a10.09,10.09,0,0,1,1.72-14.17l46.33-36.29a80.72,80.72,0,1,0,12.92,15.52l-46.8,36.66A10.09,10.09,0,0,1,337.09,324.55Z" transform="translate(-6.92 -10)"/><path d="M464.26,224.93a10.1,10.1,0,0,0-14.18-1.72l-64.94,50.88a80.87,80.87,0,0,1,12.92,15.52l64.47-50.5A10.11,10.11,0,0,0,464.26,224.93Z" transform="translate(-6.92 -10)"/><path d="M653.08,10H6.92V321.3a10.24,10.24,0,0,0,.16,1.84c-.11,3.3-.16,6.62-.16,9.94A322.44,322.44,0,0,0,128.08,585.27V325.71c0-78.2,47-149.28,119.65-178.26C421.56,78.07,585.29,242.07,515.4,415.92A184.41,184.41,0,0,1,415.29,517.48c-67.55,28-133.76,20.59-185.56-9.11v131.9A322.68,322.68,0,0,0,330,656.15c178.43,0,323.08-144.64,323.08-323.07,0-3.32-.05-6.64-.16-9.94a10.24,10.24,0,0,0,.16-1.84Z" transform="translate(-6.92 -10)"/></g></svg>